<svg xmlns="http://www.w3.org/2000/svg" width="27" height="28" viewBox="0 0 27 28">
  <g id="Group_94" data-name="Group 94" transform="translate(-40 -496)">
    <rect id="Rectangle_398" data-name="Rectangle 398" width="27" height="28" transform="translate(40 496)" fill="none"/>
    <g id="_02a5290ed2a29d97331382b0defac86d" data-name="02a5290ed2a29d97331382b0defac86d" transform="translate(40.553 494.284)">
      <path id="Path_53" data-name="Path 53" d="M8.393,14.958a3.3,3.3,0,1,0-3.3-3.294,3.3,3.3,0,0,0,3.3,3.294Zm0-5.585A2.289,2.289,0,1,1,6.1,11.663a2.29,2.29,0,0,1,2.289-2.29Zm13.1,3.193h4.052a.5.5,0,0,0,0-1.006H21.493a.5.5,0,0,0,0,1.006Z" transform="translate(-1.695 -1.651)" fill="#5f5f5f"/>
      <path id="Path_54" data-name="Path 54" d="M10.991,21.615V17.162l2.927.985a.5.5,0,0,0,.5-.1L18,14.838l1.13-.2a.5.5,0,0,0,.414-.537l-.224-2.652a.5.5,0,0,0-.5-.461h-.283l.425-1.771a.5.5,0,0,0-.979-.234l-.4,1.684-.121-.083a.5.5,0,0,0-.772.3l-.308,1.279-2.788,2.248L10.5,12.236a.5.5,0,0,0-.29-.092H3.873a1.332,1.332,0,0,0-1.026.426,1.855,1.855,0,0,0-.393,1.3v7.747ZM2.456,22.622v0Zm1.005,1.215v-1.72l0-8.3a.911.911,0,0,1,.137-.574c.023-.025.085-.094.309-.094h6.15l3.26,2.3a.5.5,0,0,0,.606-.02l3.217-2.593a.51.51,0,0,0,.174-.274l.178-.74.122.083c.008.005.018,0,.024.008a.5.5,0,0,0,.141.064.521.521,0,0,0,.117.014h.459l.147,1.734-.818.145a.506.506,0,0,0-.249.121L13.962,17.1l-3.314-1.115a.5.5,0,0,0-.663.476v7.375H3.461Zm7.53,0v0Z" transform="translate(0 1.313)" fill="#5f5f5f"/>
    </g>
  </g>
</svg>
