<svg xmlns="http://www.w3.org/2000/svg" width="28" height="28" viewBox="0 0 28 28">
  <g id="Group_103" data-name="Group 103" transform="translate(-40 -304)">
    <g id="notification" transform="translate(41.5 308.5)">
      <path id="Path_7" data-name="Path 7" d="M19.569,12.223l-1.587-1.587v-2.1A5.87,5.87,0,0,0,12.707,2.7V1.5H11.534V2.7A5.87,5.87,0,0,0,6.259,8.534v2.1L4.672,12.223a.586.586,0,0,0-.172.414V14.4a.586.586,0,0,0,.586.586h4.1v.455a3.02,3.02,0,0,0,2.638,3.048,2.935,2.935,0,0,0,3.224-2.917v-.586h4.1a.586.586,0,0,0,.586-.586V12.638a.586.586,0,0,0-.172-.414Zm-5.69,3.345a1.759,1.759,0,1,1-3.517,0v-.586h3.517Zm4.69-1.759H5.672v-.93l1.587-1.587a.586.586,0,0,0,.172-.414V8.534a4.69,4.69,0,0,1,9.379,0v2.345a.586.586,0,0,0,.172.414l1.587,1.587Z" fill="#5f5f5f"/>
    </g>
    <rect id="Rectangle_398" data-name="Rectangle 398" width="28" height="28" transform="translate(40 304)" fill="none"/>
  </g>
</svg>
