<svg xmlns="http://www.w3.org/2000/svg" width="28" height="28" viewBox="0 0 28 28">
  <g id="Group_96" data-name="Group 96" transform="translate(-40 -176)">
    <g id="calendar" transform="translate(40 179)">
      <path id="Path_5" data-name="Path 5" d="M20.385,4.308H17.769V3H16.462V4.308H11.231V3H9.923V4.308H7.308A1.312,1.312,0,0,0,6,5.615V18.692A1.312,1.312,0,0,0,7.308,20H20.385a1.312,1.312,0,0,0,1.308-1.308V5.615A1.312,1.312,0,0,0,20.385,4.308Zm0,14.385H7.308V9.538H20.385Zm0-10.462H7.308V5.615H9.923V6.923h1.308V5.615h5.231V6.923h1.308V5.615h2.615Z" fill="#5f5f5f"/>
    </g>
    <rect id="Rectangle_398" data-name="Rectangle 398" width="28" height="28" transform="translate(40 176)" fill="none"/>
  </g>
</svg>
