<svg id="Group_173" data-name="Group 173" xmlns="http://www.w3.org/2000/svg" width="20" height="20" viewBox="0 0 20 20">
  <rect id="Rectangle_2063" data-name="Rectangle 2063" width="20" height="20" fill="none"/>
  <g id="cloud-download" transform="translate(1 1)">
    <path id="Path_94" data-name="Path 94" d="M19.745,28.569V19.61H18.474v8.959l-2.061-2.061-.9.9L19.109,31,22.7,27.407l-.9-.9Z" transform="translate(-10.109 -13.046)" fill="#fff"/>
    <path id="Path_95" data-name="Path 95" d="M15.9,6.875A5.34,5.34,0,0,0,10.5,1.61,5.34,5.34,0,0,0,5.1,6.875a3.511,3.511,0,1,0,0,7.019h3v-1.17h-3a2.34,2.34,0,1,1,0-4.679H6.3V6.875a4.2,4.2,0,0,1,8.4,0v1.17h1.2a2.34,2.34,0,1,1,0,4.679h-3v1.17h3a3.511,3.511,0,1,0,0-7.019Z" transform="translate(-1.5 -1.61)" fill="#fff"/>
  </g>
</svg>
