<svg xmlns="http://www.w3.org/2000/svg" width="91" height="91" viewBox="0 0 91 91">
  <g id="Group_112" data-name="Group 112" transform="translate(-1036 -627)">
    <rect id="Rectangle_2039" data-name="Rectangle 2039" width="91" height="91" transform="translate(1036 627)" fill="none"/>
    <g id="page-search" transform="translate(1047.867 638.76)">
      <path id="Path_82" data-name="Path 82" d="M58.317,7.336h0V4.472A1.253,1.253,0,0,0,57.042,3.24H32.877L13.8,21.725v3.73h.01a1.252,1.252,0,0,0,1.261,1.131h4.771a1.253,1.253,0,0,0,1.261-1.131h.015V24.19H34.15a1.253,1.253,0,0,0,1.272-1.232V10.333H51V57.765H21.12V55.619h-.005a1.253,1.253,0,0,0-1.272-1.231H15.072A1.253,1.253,0,0,0,13.8,55.619v8.006a1.252,1.252,0,0,0,1.272,1.232H57.04a1.253,1.253,0,0,0,1.272-1.232V61.881h0Z" transform="translate(2.815 0)" fill="#a5a5a5"/>
      <path id="Path_83" data-name="Path 83" d="M29.872,30.836a10.187,10.187,0,1,0-18.936,5.2L5.967,41l.02.02a2.806,2.806,0,0,0,1.958,4.822A2.815,2.815,0,0,0,9.967,45l.014.014,5.1-5.1a10.174,10.174,0,0,0,14.789-9.079Zm-16.1,0a5.913,5.913,0,1,1,5.912,5.913,5.912,5.912,0,0,1-5.912-5.913Z" transform="translate(0 12.268)" fill="#a5a5a5"/>
    </g>
  </g>
</svg>
