<svg xmlns="http://www.w3.org/2000/svg" width="28" height="28" viewBox="0 0 28 28">
  <g id="Group_104" data-name="Group 104" transform="translate(-40 -240)">
    <g id="bank" transform="translate(43.5 243.654)">
      <path id="Path_25" data-name="Path 25" d="M9.708,1.346,1.5,5.215V7.227h17V5.2Zm7.659,4.772H2.633V5.912L9.725,2.569l7.641,3.353Z" transform="translate(0)" fill="#5f5f5f"/>
      <path id="Path_26" data-name="Path 26" d="M4.5,38.25H19.281v1.109H4.5Z" transform="translate(-1.891 -22.897)" fill="#5f5f5f"/>
      <path id="Path_27" data-name="Path 27" d="M1.5,43.5h17v1.109H1.5Z" transform="translate(0 -26.205)" fill="#5f5f5f"/>
      <path id="Path_28" data-name="Path 28" d="M5.25,20.25H6.359V25.8H5.25Z" transform="translate(-2.363 -11.687)" fill="#5f5f5f"/>
      <path id="Path_29" data-name="Path 29" d="M39.75,20.25h1.109V25.8H39.75Z" transform="translate(-23.746 -11.687)" fill="#5f5f5f"/>
      <path id="Path_30" data-name="Path 30" d="M30.75,20.25h1.109V25.8H30.75Z" transform="translate(-18.183 -11.687)" fill="#5f5f5f"/>
      <path id="Path_31" data-name="Path 31" d="M14.25,20.25h1.109V25.8H14.25Z" transform="translate(-7.926 -11.687)" fill="#5f5f5f"/>
      <path id="Path_32" data-name="Path 32" d="M22.5,20.25h1.109V25.8H22.5Z" transform="translate(-13.055 -11.687)" fill="#5f5f5f"/>
    </g>
    <rect id="Rectangle_398" data-name="Rectangle 398" width="28" height="28" transform="translate(40 240)" fill="none"/>
  </g>
</svg>
