<svg xmlns="http://www.w3.org/2000/svg" width="24" height="24" viewBox="0 0 24 24">
  <g id="Group_95" data-name="Group 95" transform="translate(-40.072 -112)">
    <g id="grid-1x2" transform="translate(43.477 116.373)">
      <g id="Group_45" data-name="Group 45" transform="translate(0 0)">
        <g id="Path_4" data-name="Path 4" transform="translate(0 0)" fill="#5f5f5f">
          <path d="M 16.27076530456543 16.3221549987793 L 11.51384544372559 16.3221549987793 C 10.93410587310791 16.3221549987793 10.46245574951172 15.85050582885742 10.46245574951172 15.27076530456543 L 10.46245574951172 10.51384544372559 C 10.46245574951172 9.93410587310791 10.93410587310791 9.462455749511719 11.51384544372559 9.462455749511719 L 16.27076530456543 9.462455749511719 C 16.85050582885742 9.462455749511719 17.3221549987793 9.93410587310791 17.3221549987793 10.51384544372559 L 17.3221549987793 15.27076530456543 C 17.3221549987793 15.85050582885742 16.85050582885742 16.3221549987793 16.27076530456543 16.3221549987793 Z M 11.61384582519531 15.17076587677002 L 16.1707649230957 15.17076587677002 L 16.1707649230957 10.61384582519531 L 11.61384582519531 10.61384582519531 L 11.61384582519531 15.17076587677002 Z M 5.708305358886719 16.3221549987793 L 0.9513853788375854 16.3221549987793 C 0.3716453909873962 16.3221549987793 -0.1000045984983444 15.85050582885742 -0.1000045984983444 15.27076530456543 L -0.1000045984983444 0.9513853788375854 C -0.1000045984983444 0.3716453909873962 0.3716453909873962 -0.1000045984983444 0.9513853788375854 -0.1000045984983444 L 5.708305358886719 -0.1000045984983444 C 6.288045406341553 -0.1000045984983444 6.759695529937744 0.3716453909873962 6.759695529937744 0.9513853788375854 L 6.759695529937744 15.27076530456543 C 6.759695529937744 15.85050582885742 6.288045406341553 16.3221549987793 5.708305358886719 16.3221549987793 Z M 1.051385402679443 15.17076587677002 L 5.60830545425415 15.17076587677002 L 5.60830545425415 1.051385402679443 L 1.051385402679443 1.051385402679443 L 1.051385402679443 15.17076587677002 Z M 16.27076530456543 6.759695529937744 L 11.51384544372559 6.759695529937744 C 10.93410587310791 6.759695529937744 10.46245574951172 6.288045406341553 10.46245574951172 5.708305358886719 L 10.46245574951172 0.9513853788375854 C 10.46245574951172 0.3716453909873962 10.93410587310791 -0.1000045984983444 11.51384544372559 -0.1000045984983444 L 16.27076530456543 -0.1000045984983444 C 16.85050582885742 -0.1000045984983444 17.3221549987793 0.3716453909873962 17.3221549987793 0.9513853788375854 L 17.3221549987793 5.708305358886719 C 17.3221549987793 6.288045406341553 16.85050582885742 6.759695529937744 16.27076530456543 6.759695529937744 Z M 11.61384582519531 5.60830545425415 L 16.1707649230957 5.60830545425415 L 16.1707649230957 1.051385402679443 L 11.61384582519531 1.051385402679443 L 11.61384582519531 5.60830545425415 Z" stroke="none"/>
          <path d="M 0.951385498046875 -3.814697265625e-06 C 0.4259452819824219 -3.814697265625e-06 -3.814697265625e-06 0.4259452819824219 -3.814697265625e-06 0.951385498046875 L -3.814697265625e-06 15.27076530456543 C -3.814697265625e-06 15.79620552062988 0.4259452819824219 16.22215461730957 0.951385498046875 16.22215461730957 L 5.708305358886719 16.22215461730957 C 6.233745574951172 16.22215461730957 6.659695625305176 15.79620552062988 6.659695625305176 15.27076530456543 L 6.659695625305176 0.951385498046875 C 6.659695625305176 0.4259452819824219 6.233745574951172 -3.814697265625e-06 5.708305358886719 -3.814697265625e-06 L 0.951385498046875 -3.814697265625e-06 M 5.708305358886719 15.27076530456543 L 0.951385498046875 15.27076530456543 L 0.951385498046875 0.951385498046875 L 5.708305358886719 0.951385498046875 L 5.708305358886719 15.27076530456543 M 11.51384544372559 -3.814697265625e-06 C 10.98840522766113 -3.814697265625e-06 10.56245517730713 0.4259452819824219 10.56245517730713 0.951385498046875 L 10.56245517730713 5.708305358886719 C 10.56245517730713 6.233745574951172 10.98840522766113 6.659695625305176 11.51384544372559 6.659695625305176 L 16.27076530456543 6.659695625305176 C 16.79620552062988 6.659695625305176 17.22215461730957 6.233745574951172 17.22215461730957 5.708305358886719 L 17.22215461730957 0.951385498046875 C 17.22215461730957 0.4259452819824219 16.79620552062988 -3.814697265625e-06 16.27076530456543 -3.814697265625e-06 L 11.51384544372559 -3.814697265625e-06 M 16.27076530456543 5.708305358886719 L 11.51384544372559 5.708305358886719 L 11.51384544372559 0.951385498046875 L 16.27076530456543 0.951385498046875 L 16.27076530456543 5.708305358886719 M 11.51384544372559 9.562455177307129 C 10.98840522766113 9.562455177307129 10.56245517730713 9.988405227661133 10.56245517730713 10.51384544372559 L 10.56245517730713 15.27076530456543 C 10.56245517730713 15.79620552062988 10.98840522766113 16.22215461730957 11.51384544372559 16.22215461730957 L 16.27076530456543 16.22215461730957 C 16.79620552062988 16.22215461730957 17.22215461730957 15.79620552062988 17.22215461730957 15.27076530456543 L 17.22215461730957 10.51384544372559 C 17.22215461730957 9.988405227661133 16.79620552062988 9.562455177307129 16.27076530456543 9.562455177307129 L 11.51384544372559 9.562455177307129 M 16.27076530456543 15.27076530456543 L 11.51384544372559 15.27076530456543 L 11.51384544372559 10.51384544372559 L 16.27076530456543 10.51384544372559 L 16.27076530456543 15.27076530456543 M 0.951385498046875 -0.2000045776367188 L 5.708305358886719 -0.2000045776367188 C 6.343185424804688 -0.2000045776367188 6.859695434570312 0.3165054321289062 6.859695434570312 0.951385498046875 L 6.859695434570312 15.27076530456543 C 6.859695434570312 15.9056453704834 6.343185424804688 16.42215538024902 5.708305358886719 16.42215538024902 L 0.951385498046875 16.42215538024902 C 0.3165054321289062 16.42215538024902 -0.2000045776367188 15.9056453704834 -0.2000045776367188 15.27076530456543 L -0.2000045776367188 0.951385498046875 C -0.2000045776367188 0.3165054321289062 0.3165054321289062 -0.2000045776367188 0.951385498046875 -0.2000045776367188 Z M 5.508305549621582 1.151385307312012 L 1.151386260986328 1.151385307312012 L 1.151386260986328 15.07076549530029 L 5.508305549621582 15.07076549530029 L 5.508305549621582 1.151385307312012 Z M 11.51384544372559 -0.2000045776367188 L 16.27076530456543 -0.2000045776367188 C 16.9056453704834 -0.2000045776367188 17.42215538024902 0.3165054321289062 17.42215538024902 0.951385498046875 L 17.42215538024902 5.708305358886719 C 17.42215538024902 6.343185424804688 16.9056453704834 6.859695434570312 16.27076530456543 6.859695434570312 L 11.51384544372559 6.859695434570312 C 10.87896537780762 6.859695434570312 10.36245536804199 6.343185424804688 10.36245536804199 5.708305358886719 L 10.36245536804199 0.951385498046875 C 10.36245536804199 0.3165054321289062 10.87896537780762 -0.2000045776367188 11.51384544372559 -0.2000045776367188 Z M 16.07076454162598 1.151385307312012 L 11.71384525299072 1.151385307312012 L 11.71384525299072 5.508305549621582 L 16.07076454162598 5.508305549621582 L 16.07076454162598 1.151385307312012 Z M 11.51384544372559 9.362455368041992 L 16.27076530456543 9.362455368041992 C 16.9056453704834 9.362455368041992 17.42215538024902 9.878965377807617 17.42215538024902 10.51384544372559 L 17.42215538024902 15.27076530456543 C 17.42215538024902 15.9056453704834 16.9056453704834 16.42215538024902 16.27076530456543 16.42215538024902 L 11.51384544372559 16.42215538024902 C 10.87896537780762 16.42215538024902 10.36245536804199 15.9056453704834 10.36245536804199 15.27076530456543 L 10.36245536804199 10.51384544372559 C 10.36245536804199 9.878965377807617 10.87896537780762 9.362455368041992 11.51384544372559 9.362455368041992 Z M 16.07076454162598 10.71384525299072 L 11.71384525299072 10.71384525299072 L 11.71384525299072 15.07076549530029 L 16.07076454162598 15.07076549530029 L 16.07076454162598 10.71384525299072 Z" stroke="none" fill="#5f5f5f"/>
        </g>
      </g>
    </g>
    <rect id="Rectangle_398" data-name="Rectangle 398" width="24" height="24" transform="translate(40.072 112)" fill="none"/>
  </g>
</svg>
