<svg xmlns="http://www.w3.org/2000/svg" width="47" height="47" viewBox="0 0 40 40">
  <g id="Group_74" data-name="Group 74" transform="translate(-997.705 -17)">
    <rect id="Rectangle_436" data-name="Rectangle 436" width="40" height="40" transform="translate(997.705 17)" fill="none"/>
    <g id="Group_73" data-name="Group 73" transform="translate(1001.47 19.721)">
      <path id="Path_61" data-name="Path 61" d="M4818.117-134.829a.873.873,0,0,1-.466-.134l-2.315-1.454a.878.878,0,0,1-.41-.743V-143.3a.878.878,0,0,1,.4-.733l4.772-3.132v-5.5a.877.877,0,0,1,.4-.736l5.492-3.553a.877.877,0,0,1,.93-.014l10.336,6.245a.876.876,0,0,1,.423.751v2.369a.877.877,0,0,1-.877.877.877.877,0,0,1-.877-.877v-1.874l-9.443-5.706-4.631,3v5.5a.877.877,0,0,1-.4.733l-4.772,3.132v5.179l1.9,1.2a.877.877,0,0,1,.276,1.209A.875.875,0,0,1,4818.117-134.829Z" transform="translate(-4814.926 157.203)" fill="#ffdb33"/>
      <path id="Path_62" data-name="Path 62" d="M4846.757-129.073a.874.874,0,0,1-.534-.181l-2.315-1.777a.878.878,0,0,1-.162-1.23.877.877,0,0,1,1.23-.162l1.809,1.388,9.809-6.753v-4.949l-4.416-3.076a.878.878,0,0,1-.376-.72v-5.7l-5.041-3.117-1.854,1.163a.876.876,0,0,1-1.208-.276.877.877,0,0,1,.276-1.209l2.314-1.454a.877.877,0,0,1,.928,0l5.922,3.661a.878.878,0,0,1,.416.746v5.733l4.416,3.076a.878.878,0,0,1,.375.72v5.868a.877.877,0,0,1-.38.722l-10.714,7.376A.874.874,0,0,1,4846.757-129.073Z" transform="translate(-4824.992 157.261)" fill="#53bf9d"/>
      <path id="Path_63" data-name="Path 63" d="M4833.779-131.577a.877.877,0,0,1-.518-.169l-2.207-1.615a.876.876,0,0,1-.359-.708v-12.6a.876.876,0,0,1,.317-.675l2.207-1.83a.877.877,0,0,1,1.235.115.877.877,0,0,1-.115,1.235l-1.89,1.567v11.741l1.848,1.352a.876.876,0,0,1,.19,1.226A.874.874,0,0,1,4833.779-131.577Z" transform="translate(-4820.466 154.489)" fill="#53bf9d"/>
      <path id="Path_59" data-name="Path 59" d="M4839.782-116.084a.874.874,0,0,1-.526-.175l-4.534-3.4-4.938,3.419a.878.878,0,0,1-.982.011l-5.739-3.779a.878.878,0,0,1-.395-.733V-133.2a.88.88,0,0,1,.295-.656l3.079-2.73a.878.878,0,0,1,1.239.075.878.878,0,0,1-.074,1.238l-2.784,2.468v11.591l4.849,3.194,4.972-3.442a.877.877,0,0,1,1.025.019l4.559,3.419,4.257-2.645v-3.572a.876.876,0,0,1,.876-.877.877.877,0,0,1,.877.877v4.059a.877.877,0,0,1-.415.745l-5.178,3.219A.877.877,0,0,1,4839.782-116.084Z" transform="translate(-4817.646 150.071)" fill="#fd5e2c"/>
      <path id="Path_60" data-name="Path 60" d="M5396.219,631.788a.775.775,0,0,1-.455-.148l-2.988-2.17a.774.774,0,0,1,.911-1.252l2.56,1.86,9.771-6.251v-3.911a.774.774,0,0,1,1.548,0v4.334a.774.774,0,0,1-.356.652l-10.574,6.764A.772.772,0,0,1,5396.219,631.788Z" transform="translate(-5384.374 -604.794)" fill="#d247aa"/>
      <path id="Path_60-2" data-name="Path 60" d="M4849.222-130.885a.877.877,0,0,1-.877-.877v-2.844l-9.707-5.4-2.173,1.116a.876.876,0,0,1-1.18-.38.876.876,0,0,1,.379-1.181l2.589-1.33a.878.878,0,0,1,.828.014l10.567,5.879a.878.878,0,0,1,.451.766v3.359A.877.877,0,0,1,4849.222-130.885Z" transform="translate(-4822.046 151.853)" fill="#fd5e2c"/>
    </g>
  </g>
</svg>
