<svg xmlns="http://www.w3.org/2000/svg" width="28" height="28" viewBox="0 0 28 28">
  <g id="Group_99" data-name="Group 99" transform="translate(-40 -496)">
    <rect id="Rectangle_398" data-name="Rectangle 398" width="28" height="28" transform="translate(40 496)" fill="none"/>
    <g id="Layer_2" data-name="Layer 2" transform="translate(39 492)">
      <path id="Path_55" data-name="Path 55" d="M8.957,23.6Zm1.079-.719V21.8a1.079,1.079,0,0,1,1.079-1.079h2.158A1.079,1.079,0,0,1,14.352,21.8v1.079Zm5.036,0V21.8a1.8,1.8,0,0,0-1.8-1.8H11.115a1.8,1.8,0,0,0-1.8,1.8v1.079h5.755ZM8.957,30.431H6.8A1.8,1.8,0,0,0,5,32.23v2.158a.36.36,0,0,0,.36.36H10.4a.36.36,0,0,0,.36-.36V32.23A1.8,1.8,0,0,0,8.957,30.431Zm1.079,3.6H5.719v-1.8A1.079,1.079,0,0,1,6.8,31.151H8.957a1.079,1.079,0,0,1,1.079,1.079ZM6.079,27.914a1.8,1.8,0,1,0,1.8-1.8,1.8,1.8,0,0,0-1.8,1.8Zm1.8-1.079A1.079,1.079,0,1,1,6.8,27.914a1.079,1.079,0,0,1,1.079-1.079Zm14.748,3.6H20.467a1.8,1.8,0,0,0-1.8,1.8v2.158a.36.36,0,0,0,.36.36h5.036a.36.36,0,0,0,.36-.36V32.23A1.8,1.8,0,0,0,22.626,30.431Zm1.079,3.6H19.388v-1.8a1.079,1.079,0,0,1,1.079-1.079h2.158A1.079,1.079,0,0,1,23.7,32.23Zm-3.957-6.115a1.8,1.8,0,1,0,1.8-1.8,1.8,1.8,0,0,0-1.8,1.8Zm2.878,0a1.079,1.079,0,1,1-1.079-1.079A1.079,1.079,0,0,1,22.626,27.914Zm-6.834,2.518H13.633a1.8,1.8,0,0,0-1.8,1.8v2.158a.36.36,0,0,0,.36.36H17.23a.36.36,0,0,0,.36-.36V32.23A1.8,1.8,0,0,0,15.791,30.431Zm1.079,3.6H12.554v-1.8a1.079,1.079,0,0,1,1.079-1.079h2.158A1.079,1.079,0,0,1,16.87,32.23Zm-3.957-6.115a1.8,1.8,0,1,0,1.8-1.8,1.8,1.8,0,0,0-1.8,1.8Zm2.878,0a1.079,1.079,0,1,1-1.079-1.079A1.079,1.079,0,0,1,15.791,27.914Z" transform="translate(0 -7.684)" fill="#5f5f5f"/>
      <path id="Path_56" data-name="Path 56" d="M21.8,8a1.8,1.8,0,1,0,1.8,1.8A1.8,1.8,0,0,0,21.8,8Zm0,2.878A1.079,1.079,0,1,1,22.878,9.8,1.079,1.079,0,0,1,21.8,10.878Zm3.6-1.8h4.316V9.8H25.4Zm0,2.878h4.316v.719H25.4Zm0-1.439h2.878v.719H25.4Z" transform="translate(-9.604 0)" fill="#5f5f5f"/>
    </g>
  </g>
</svg>
