<svg xmlns="http://www.w3.org/2000/svg" width="28" height="28" viewBox="0 0 28 28">
  <g id="Group_100" data-name="Group 100" transform="translate(-40 -496)">
    <rect id="Rectangle_398" data-name="Rectangle 398" width="28" height="28" transform="translate(40 496)" fill="none"/>
    <g id="id-card-outline" transform="translate(40.5 499.5)">
      <path id="Rectangle_410" data-name="Rectangle 410" d="M.8-1.5H8.834a2.3,2.3,0,0,1,2.3,2.3V13.427a2.3,2.3,0,0,1-2.3,2.3H.8a2.3,2.3,0,0,1-2.3-2.3V.8A2.3,2.3,0,0,1,.8-1.5ZM8.834,14.576a1.15,1.15,0,0,0,1.148-1.148V.8A1.15,1.15,0,0,0,8.834-.352H.8A1.15,1.15,0,0,0-.352.8V13.427A1.15,1.15,0,0,0,.8,14.576Z" transform="translate(9 3)" fill="#5f5f5f"/>
      <path id="Path_50" data-name="Path 50" d="M22.019,7.148H18.574a.574.574,0,0,1,0-1.148h3.445a.574.574,0,0,1,0,1.148Z" transform="translate(-6.481 -2.778)" fill="#5f5f5f"/>
      <path id="Path_51" data-name="Path 51" d="M27.243,25.949a1.477,1.477,0,0,0-2.118,0,1.464,1.464,0,0,0-.371,1.112,1.571,1.571,0,0,0,1.431,1.528,1.571,1.571,0,0,0,1.431-1.527,1.452,1.452,0,0,0-.373-1.11Z" transform="translate(-10.647 -14.814)" fill="#5f5f5f"/>
      <path id="Path_51_-_Outline" data-name="Path 51 - Outline" d="M26.177,25.453a1.446,1.446,0,0,1,1.05.455,1.47,1.47,0,0,1,.378,1.124,1.589,1.589,0,0,1-1.449,1.543,1.589,1.589,0,0,1-1.449-1.544,1.474,1.474,0,0,1,.376-1.126,1.443,1.443,0,0,1,1.073-.452Zm-.021,3.086a1.553,1.553,0,0,0,1.413-1.51,1.434,1.434,0,0,0-.368-1.1,1.459,1.459,0,0,0-2.092,0,1.439,1.439,0,0,0-.366,1.1A1.553,1.553,0,0,0,26.156,28.539Z" transform="translate(-10.618 -14.785)" fill="#5f5f5f"/>
      <path id="Path_52" data-name="Path 52" d="M26.3,37.834H21.441a.432.432,0,0,1-.334-.15.466.466,0,0,1-.1-.392,2.3,2.3,0,0,1,1.051-1.531,3.462,3.462,0,0,1,3.621,0,2.3,2.3,0,0,1,1.051,1.531.466.466,0,0,1-.1.392A.432.432,0,0,1,26.3,37.834Z" transform="translate(-8.332 -20.832)" fill="#5f5f5f"/>
      <path id="Path_52_-_Outline" data-name="Path 52 - Outline" d="M26.276,37.823H21.4a.45.45,0,0,1-.341-.156.482.482,0,0,1-.1-.407,2.32,2.32,0,0,1,1.059-1.542,3.479,3.479,0,0,1,3.641,0A2.32,2.32,0,0,1,26.72,37.26a.482.482,0,0,1-.1.407A.45.45,0,0,1,26.276,37.823Zm-4.865-.036h4.865a.414.414,0,0,0,.314-.143.446.446,0,0,0,.1-.377,2.285,2.285,0,0,0-1.044-1.519,3.444,3.444,0,0,0-3.6,0A2.285,2.285,0,0,0,21,37.266a.447.447,0,0,0,.1.377.414.414,0,0,0,.313.143Z" transform="translate(-8.303 -20.803)" fill="#5f5f5f"/>
    </g>
  </g>
</svg>
