<svg xmlns="http://www.w3.org/2000/svg" width="28" height="28" viewBox="0 0 28 28">
  <g id="Group_101" data-name="Group 101" transform="translate(-40 -496)">
    <rect id="Rectangle_398" data-name="Rectangle 398" width="28" height="28" transform="translate(40 496)" fill="none"/>
    <g id="Group_70" data-name="Group 70" transform="translate(46 501)">
      <path id="Path_57" data-name="Path 57" d="M19.685,9.317h2.057a.379.379,0,0,1,.379.379v8.656a.379.379,0,0,1-.379.379H19.685a.379.379,0,0,1-.379-.379V9.7A.379.379,0,0,1,19.685,9.317Zm1.678.758h-1.3v7.9h1.3ZM15.024,11.19H17.08a.379.379,0,0,1,.379.379v6.783a.379.379,0,0,1-.379.379H15.024a.379.379,0,0,1-.379-.379V11.569A.379.379,0,0,1,15.024,11.19Zm1.678.758H15.4v6.025h1.3Zm-6.339.907h2.057a.379.379,0,0,1,.379.379v5.118a.379.379,0,0,1-.379.379H10.363a.379.379,0,0,1-.379-.379V13.233A.379.379,0,0,1,10.363,12.855Zm1.678.758h-1.3v4.36h1.3Z" transform="translate(-7.617 -6.166)" fill="#5f5f5f"/>
      <path id="Path_58" data-name="Path 58" d="M17.353,19.944a.379.379,0,0,1-.335-.2L13.74,13.564H12.55v6a.379.379,0,0,1-.758,0v-6H10.6L7.325,19.742a.379.379,0,0,1-.669-.355l3.089-5.823H5.086a1.35,1.35,0,0,1-1.35-1.35V2.35A1.351,1.351,0,0,1,5.086,1H19.256a1.352,1.352,0,0,1,1.35,1.35v9.865a1.352,1.352,0,0,1-1.349,1.35H14.6l3.089,5.823a.379.379,0,0,1-.334.557ZM5.086,12.807H19.258a.593.593,0,0,0,.59-.592V2.35a.593.593,0,0,0-.592-.592H5.086a.593.593,0,0,0-.592.592v9.865a.592.592,0,0,0,.592.592Z" transform="translate(-3.736 -1)" fill="#5f5f5f"/>
    </g>
  </g>
</svg>
